<svg xmlns="http://www.w3.org/2000/svg" xmlns:xlink="http://www.w3.org/1999/xlink" width="1080" zoomAndPan="magnify" viewBox="0 0 810 809.999993" height="1080" preserveAspectRatio="xMidYMid meet" version="1.0"><path fill="#9465f2" d="M 488.398438 613 C 466.839844 621.355469 444.949219 626.753906 422.078125 627.757812 C 419.738281 627.863281 417.398438 628.132812 415.070312 628.429688 C 411.242188 628.917969 409.71875 627.636719 409.761719 623.449219 C 409.960938 603.261719 409.734375 583.066406 409.941406 562.875 C 409.988281 558.003906 408.820312 554.453125 405.132812 550.894531 C 390.5 536.785156 376.3125 522.21875 361.875 507.910156 C 359.855469 505.90625 359.011719 503.863281 359.019531 501 C 359.101562 458.816406 359.042969 416.632812 359.140625 374.449219 C 359.148438 371.132812 358.183594 368.746094 355.820312 366.445312 C 347.300781 358.148438 338.917969 349.710938 330.578125 341.230469 C 329.011719 339.636719 327.816406 339.308594 325.578125 340.121094 C 299.78125 349.472656 275.242188 330.984375 276.953125 303.601562 C 278.097656 285.273438 295.3125 270.914062 313.835938 271.710938 C 331.164062 272.457031 345.238281 285.636719 347.59375 302.101562 C 348.535156 308.695312 347.519531 315.082031 344.972656 321.15625 C 343.972656 323.546875 344.105469 325.078125 346 326.945312 C 356.640625 337.421875 367.136719 348.042969 377.742188 358.558594 C 379.113281 359.917969 379.878906 361.304688 379.878906 363.257812 C 379.910156 404.882812 380.164062 446.511719 379.796875 488.132812 C 379.746094 494.09375 381.476562 497.878906 385.464844 501.78125 C 399.902344 515.894531 414.058594 530.296875 428.414062 544.492188 C 430.375 546.429688 431.023438 548.453125 431.007812 551.109375 C 430.925781 567.707031 430.960938 584.300781 430.976562 600.898438 C 430.980469 605.664062 431.625 606.28125 436.273438 605.441406 C 515.769531 591.101562 569.6875 546.082031 597.371094 470.210938 C 607.082031 443.601562 609.570312 415.832031 606.492188 387.710938 C 599.664062 325.289062 569.851562 276.542969 518.222656 241.070312 C 499.234375 228.023438 478.382812 219.003906 456.015625 213.492188 C 451.320312 212.335938 451.289062 212.636719 450.855469 217.375 C 450.371094 222.648438 452.242188 226.335938 456.007812 230.058594 C 478.53125 252.316406 500.75 274.882812 523.191406 297.222656 C 525.675781 299.699219 526.53125 302.199219 526.515625 305.605469 C 526.402344 329.808594 526.527344 354.011719 526.394531 378.214844 C 526.378906 381.703125 527.273438 383.582031 530.675781 385.089844 C 545.257812 391.542969 552.84375 405.535156 551.292969 422.265625 C 550.027344 435.898438 538.589844 448.496094 524.28125 452.011719 C 506.785156 456.3125 488.234375 446.105469 482.535156 429.042969 C 476.621094 411.328125 484.722656 392.25 501.453125 385.082031 C 504.523438 383.765625 505.496094 382.078125 505.480469 378.863281 C 505.359375 357.148438 505.355469 335.433594 505.480469 313.71875 C 505.5 310.527344 504.464844 308.269531 502.257812 306.074219 C 479.039062 282.941406 455.917969 259.714844 432.679688 236.597656 C 430.648438 234.574219 429.773438 232.5625 429.800781 229.699219 C 429.9375 216.976562 429.941406 204.25 429.808594 191.527344 C 429.773438 188.527344 430.660156 187.691406 433.644531 188.027344 C 451.027344 189.96875 467.894531 194.050781 484.238281 200.203125 C 508.542969 209.355469 530.574219 222.433594 550.132812 239.511719 C 581.851562 267.210938 604.84375 300.78125 617.855469 341.019531 C 625.230469 363.835938 628.929688 387.257812 628.316406 411.148438 C 626.71875 473.25 603.859375 526.230469 558.449219 568.921875 C 538.125 588.03125 514.8125 602.773438 488.398438 613 M 318.074219 293.886719 C 313.898438 291.8125 309.792969 292.296875 305.734375 294.246094 C 299.597656 297.199219 296.523438 304.691406 298.652344 311.5 C 300.652344 317.894531 307.957031 322.703125 313.988281 321.59375 C 320.65625 320.363281 325.652344 315.601562 326.644531 309.523438 C 327.683594 303.15625 324.890625 297.769531 318.074219 293.886719 M 510.796875 404.023438 C 509.398438 404.894531 507.863281 405.605469 506.628906 406.664062 C 501.75 410.84375 500.277344 417.625 502.90625 423.179688 C 505.707031 429.105469 512.296875 432.925781 517.996094 431.929688 C 526.234375 430.488281 532.03125 422.355469 530.28125 414.691406 C 528.246094 405.757812 520.246094 401.136719 510.796875 404.023438 Z M 510.796875 404.023438 " fill-opacity="1" fill-rule="nonzero"/><path fill="#9465f2" d="M 283.316406 250.96875 C 245.15625 281.960938 221.015625 321.304688 211.382812 369.148438 C 204.527344 403.222656 206.289062 437.167969 217.890625 470.042969 C 241.910156 538.101562 289.074219 581.753906 358.53125 601.308594 C 364.070312 602.867188 363.828125 602.691406 364.300781 597.132812 C 364.753906 591.832031 362.855469 588.1875 359.089844 584.484375 C 336.925781 562.652344 315.070312 540.507812 292.960938 518.617188 C 289.753906 515.441406 288.488281 512.1875 288.523438 507.695312 C 288.707031 483.910156 288.542969 460.121094 288.65625 436.335938 C 288.675781 433.007812 287.738281 431.261719 284.539062 429.78125 C 268.730469 422.464844 261.128906 406.730469 264.582031 389.308594 C 267.5625 374.253906 281.570312 362.710938 297.96875 361.789062 C 312.671875 360.960938 327.402344 370.96875 332.6875 385.378906 C 338.019531 399.921875 333.054688 416.632812 320.617188 425.78125 C 318.730469 427.167969 316.800781 428.753906 314.636719 429.449219 C 310.644531 430.738281 309.648438 433.105469 309.6875 437.152344 C 309.898438 458.449219 309.84375 479.746094 309.738281 501.042969 C 309.726562 504.195312 310.652344 506.554688 312.871094 508.761719 C 336.195312 531.984375 359.433594 555.289062 382.78125 578.488281 C 384.617188 580.3125 385.40625 582.105469 385.386719 584.648438 C 385.292969 596.816406 385.34375 608.988281 385.339844 621.15625 C 385.339844 627.507812 385.324219 627.585938 379.125 626.710938 C 358.644531 623.8125 338.671875 618.859375 319.894531 610.089844 C 255.179688 579.871094 213.09375 530.238281 193.777344 461.5 C 188.101562 441.304688 185.699219 420.550781 186.707031 399.589844 C 188.949219 352.828125 204.183594 310.613281 232.933594 273.625 C 268.609375 227.726562 315.027344 199.171875 372.519531 189.214844 C 379.847656 187.945312 387.320312 187.496094 394.726562 186.707031 C 399.507812 186.199219 400.011719 186.648438 400.019531 191.464844 C 400.042969 212.207031 400.136719 232.953125 399.976562 253.695312 C 399.945312 257.613281 401.09375 260.40625 403.886719 263.152344 C 418.085938 277.113281 431.996094 291.363281 446.25 305.269531 C 449.695312 308.628906 451.054688 312.023438 451.035156 316.835938 C 450.855469 358.046875 450.964844 399.261719 450.867188 440.476562 C 450.859375 443.765625 451.710938 446.222656 454.078125 448.527344 C 462.101562 456.339844 470.011719 464.269531 477.863281 472.257812 C 479.652344 474.082031 481.191406 474.429688 483.667969 473.542969 C 507.273438 465.109375 531.210938 481.46875 531.933594 506.410156 C 532.445312 524.0625 517.917969 540.476562 500.316406 542.132812 C 480.957031 543.953125 463.886719 530.917969 461.128906 512.367188 C 460.121094 505.605469 460.847656 499.117188 463.542969 492.917969 C 464.707031 490.234375 464.484375 488.453125 462.335938 486.359375 C 452.53125 476.8125 442.964844 467.019531 433.128906 457.507812 C 430.457031 454.925781 429.765625 452.132812 429.769531 448.632812 C 429.832031 407.003906 429.761719 365.375 429.859375 323.746094 C 429.867188 320.277344 428.816406 317.816406 426.355469 315.386719 C 411.589844 300.816406 397.015625 286.054688 382.273438 271.464844 C 379.9375 269.152344 378.898438 266.773438 378.929688 263.453125 C 379.078125 247.550781 379.003906 231.644531 378.996094 215.742188 C 378.996094 209.835938 378.386719 209.273438 372.511719 210.453125 C 355.664062 213.832031 339.28125 218.667969 323.660156 225.972656 C 309.308594 232.679688 295.984375 241.003906 283.316406 250.96875 M 297.890625 382.960938 C 296.558594 383.324219 295.195312 383.585938 293.90625 384.058594 C 287.042969 386.597656 283.132812 394.660156 285.3125 401.671875 C 287.585938 408.972656 295.34375 413.363281 302.574219 411.4375 C 310.117188 409.425781 314.398438 403.046875 313.46875 395.207031 C 312.652344 388.351562 306.46875 383.25 297.890625 382.960938 M 487.03125 495.703125 C 481.554688 500.96875 480.34375 506.023438 483.003906 512.476562 C 485.9375 519.597656 494.59375 523.125 501.65625 520.085938 C 509.453125 516.722656 512.847656 508.335938 509.386719 500.972656 C 505.277344 492.214844 496.167969 489.871094 487.03125 495.703125 Z M 487.03125 495.703125 " fill-opacity="1" fill-rule="nonzero"/></svg>